<?xml version="1.0" encoding="UTF-8"?>
<svg width="24px" height="24px" viewBox="0 0 24 24" version="1.1" xmlns="http://www.w3.org/2000/svg" xmlns:xlink="http://www.w3.org/1999/xlink">
    <title>icons/favorite</title>
    <g id="icons/favorite" stroke="none" stroke-width="1" fill="none" fill-rule="evenodd">
        <g id="favorite_white_24dp">
            <polygon id="Path" points="0 0 24 0 24 24 0 24"></polygon>
        </g>
        <circle id="Oval" fill="#E5E5E5" cx="12" cy="12" r="12"></circle>
        <path d="M15.6,5 C18.064,5 20,6.936 20,9.4 C20,12.424 17.28,14.888 13.16,18.632 L12,19.68 L9.28940589,17.2111563 C6.05130194,14.2298837 4,12.0261053 4,9.4 C4,6.936 5.936,5 8.4,5 C9.792,5 11.128,5.648 12,6.672 C12.872,5.648 14.208,5 15.6,5 Z M15.6,7 C14.8853601,7 14.1633947,7.31134437 13.6556901,7.82396448 L13.5227039,7.96867757 L12,9.75680696 L10.4772961,7.96867757 C9.96793222,7.37052554 9.1796072,7 8.4,7 C7.0405695,7 6,8.0405695 6,9.4 C6,9.95258957 6.1517488,10.5014313 6.48481857,11.1186197 L6.60748913,11.3375294 C7.2634018,12.4649316 8.28690087,13.5634679 10.8315324,15.9080006 L12.004,16.979 L12.9674184,16.098786 C15.7560059,13.5329593 16.7912327,12.4183164 17.4595198,11.2203742 L17.5196172,11.1106096 C17.8495961,10.4965322 18,9.95016533 18,9.4 C18,8.0405695 16.9594305,7 15.6,7 Z" id="Path" fill="#666666" fill-rule="nonzero"></path>
    </g>
</svg>