<?xml version="1.0" encoding="UTF-8"?>
<svg width="24px" height="24px" viewBox="0 0 24 24" version="1.1" xmlns="http://www.w3.org/2000/svg" xmlns:xlink="http://www.w3.org/1999/xlink">
    <title>icons/favorite_green</title>
    <g id="icons/favorite_green" stroke="none" stroke-width="1" fill="none" fill-rule="evenodd">
        <circle id="Oval" fill="#E5E5E5" cx="12" cy="12" r="12"></circle>
        <path d="M15.6,6 C14.5018181,6 13.4489356,6.51290112 12.761352,7.32033879 C12.4079078,7.7353925 12.1466742,8.23333931 12.0000078,8.76654459 C11.8533878,8.23345756 11.5921342,7.73544178 11.238648,7.32033879 C10.5510644,6.51290112 9.49818189,6 8.4,6 C7.448,6 6.59584027,6.37037329 5.98310678,6.98310678 C5.37037329,7.59584027 5,8.448 5,9.4 C5,12.2227899 7.71851657,14.4435346 11.5117413,17.8832142 L12.0025015,18.3299741 L12.5211494,17.8613299 C16.2914852,14.4350958 19,12.217458 19,9.4 C19,8.448 18.6296267,7.59584027 18.0168932,6.98310678 C17.4041597,6.37037329 16.552,6 15.6,6 Z" id="Path" stroke="#54BE74" stroke-width="2" fill="#54BE74" fill-rule="nonzero"></path>
    </g>
</svg>