<?xml version="1.0" encoding="UTF-8"?>
<svg width="24px" height="24px" viewBox="0 0 24 24" version="1.1" xmlns="http://www.w3.org/2000/svg" xmlns:xlink="http://www.w3.org/1999/xlink">
    <title>icons/luggage</title>
    <g id="icons/luggage" stroke="none" stroke-width="1" fill="none" fill-rule="evenodd">
        <g id="luggage_black_24dp">
            <rect id="Rectangle" x="0" y="0" width="24" height="24"></rect>
            <path d="M9.5,18 L8,18 L8,9 L9.5,9 L9.5,18 Z M12.75,18 L11.25,18 L11.25,9 L12.75,9 L12.75,18 Z M16,18 L14.5,18 L14.5,9 L16,9 L16,18 Z M17,6 L15,6 L15,3 C15,2.45 14.55,2 14,2 L10,2 C9.45,2 9,2.45 9,3 L9,6 L7,6 C5.9,6 5,6.9 5,8 L5,19 C5,20.1 5.9,21 7,21 C7,21.55 7.45,22 8,22 C8.55,22 9,21.55 9,21 L15,21 C15,21.55 15.45,22 16,22 C16.55,22 17,21.55 17,21 C18.1,21 19,20.1 19,19 L19,8 C19,6.9 18.1,6 17,6 Z M10.5,3.5 L13.5,3.5 L13.5,6 L10.5,6 L10.5,3.5 Z M17,19 L7,19 L7,8 L17,8 L17,19 Z" id="Shape" fill-opacity="0.6" fill="#000000" fill-rule="nonzero"></path>
        </g>
    </g>
</svg>