<?xml version="1.0" encoding="UTF-8"?>
<svg width="24px" height="24px" viewBox="0 0 24 24" version="1.1" xmlns="http://www.w3.org/2000/svg" xmlns:xlink="http://www.w3.org/1999/xlink">
    <title>icons/sort</title>
    <g id="icons/sort" stroke="none" stroke-width="1" fill="none" fill-rule="evenodd">
        <g id="sort_black_24dp">
            <polygon id="Path" points="0 0 24 0 24 24 0 24"></polygon>
            <g id="Group-3" transform="translate(2.000000, 6.000000)" fill="#000000" fill-opacity="0.6">
                <path d="M8.33372206,12 L16.3337221,12 L16.3337221,10 L8.33372206,10 L8.33372206,12 Z M8.33372206,2.84217094e-14 L8.33372206,2 L20.3337221,2 L20.3337221,2.84217094e-14 L8.33372206,2.84217094e-14 Z M8.33372206,7 L18.3337221,7 L18.3337221,5 L8.33372206,5 L8.33372206,7 Z" id="Shape" fill-rule="nonzero"></path>
                <path d="M5.33372206,9.95365964e-15 L5.33372206,12 L3.614,12 L3.53553391,12.0792771 L3.456,12 L3.33372206,12 L3.333,11.877 L5.81756865e-14,8.54374317 L1.41421356,7.1295296 L3.333,9.049 L3.33372206,9.5862656e-15 L5.33372206,9.95365964e-15 Z" id="Combined-Shape"></path>
            </g>
        </g>
    </g>
</svg>