<?xml version="1.0" encoding="UTF-8"?>
<svg width="245px" height="49px" viewBox="0 0 245 49" version="1.1" xmlns="http://www.w3.org/2000/svg" xmlns:xlink="http://www.w3.org/1999/xlink">
    <title>logo</title>
    <g id="logo" stroke="none" stroke-width="1" fill="none" fill-rule="evenodd">
        <path d="M25.368,16.46 L25.368,9.152 L2.8,9.152 L2.8,16.46 L25.368,16.46 Z M21.42,13.492 L18.62,13.492 L18.62,12.12 L21.42,12.12 L21.42,13.492 Z M15.26,13.492 L12.572,13.492 L12.572,12.12 L15.26,12.12 L15.26,13.492 Z M9.212,13.492 L6.552,13.492 L6.552,12.12 L9.212,12.12 L9.212,13.492 Z M3.752,34.8 C6.72,33.988 10.5,32.56 12.88,30.964 L10.388,29.844 L17.556,29.844 L15.148,31.356 C18.144,32.392 21.224,33.764 22.876,34.688 L27.356,32.7 C25.564,31.916 22.68,30.796 19.964,29.844 L23.884,29.844 L23.884,17.356 L4.256,17.356 L4.256,29.844 L8.008,29.844 C6.048,30.684 3.276,31.412 0.728,31.832 C1.624,32.532 3.052,33.988 3.752,34.8 Z M19.6,20.8 L8.344,20.8 L8.344,19.848 L19.6,19.848 L19.6,20.8 Z M19.6,24.076 L8.344,24.076 L8.344,23.124 L19.6,23.124 L19.6,24.076 Z M19.6,27.38 L8.344,27.38 L8.344,26.4 L19.6,26.4 L19.6,27.38 Z M44.268,34.604 L44.268,20.884 C47.068,23.236 50.456,26.204 52.024,28.192 L55.524,25.056 C53.508,22.788 49.168,19.512 46.34,17.3 L44.268,19.036 L44.268,16.376 C44.772,15.62 45.248,14.836 45.696,14.052 L54.32,14.052 L54.32,9.88 L29.736,9.88 L29.736,14.052 L40.292,14.052 C37.772,18.14 33.656,22.2 28.756,24.44 C29.624,25.364 30.912,27.072 31.556,28.164 C34.636,26.568 37.408,24.412 39.788,21.948 L39.788,34.604 L44.268,34.604 Z M59.64,35.108 C60.144,33.848 60.508,32.28 60.788,30.572 C63.028,33.372 66.332,33.96 71.176,33.96 L82.096,33.96 C82.348,32.728 83.02,30.852 83.636,29.928 C80.64,30.096 73.78,30.096 71.204,30.068 C69.16,30.068 67.452,29.984 66.024,29.592 L66.024,25.644 L69.3,25.644 L69.3,22.144 L66.024,22.144 L66.024,19.764 L69.552,19.764 L69.552,16.208 L65.296,16.208 L65.296,14.136 L68.852,14.136 L68.852,10.636 L65.296,10.636 L65.296,8.172 L61.488,8.172 L61.488,10.636 L57.876,10.636 L57.876,14.136 L61.488,14.136 L61.488,16.208 L57.064,16.208 L57.064,19.764 L62.3,19.764 L62.3,26.848 C61.936,26.288 61.628,25.616 61.348,24.832 C61.432,23.684 61.46,22.508 61.488,21.332 L57.792,21.052 C57.764,25.812 57.484,30.572 56.224,33.428 C57.12,33.792 58.912,34.632 59.64,35.108 Z M78.904,29.088 C81.928,29.088 82.964,27.688 83.412,23.516 C82.32,23.264 80.724,22.62 79.884,21.976 C79.716,24.832 79.52,25.448 78.54,25.448 L75.684,25.448 C74.6643333,25.448 74.4932708,25.2937083 74.4807859,24.0733041 L74.48,19.988 L81.676,19.988 L81.676,9.012 L70.56,9.012 L70.56,23.908 C70.56,27.996 71.652,29.088 75.096,29.088 L78.904,29.088 Z M77.784,16.488 L74.48,16.488 L74.48,12.568 L77.784,12.568 L77.784,16.488 Z M87.528,35.08 C88.424,34.156 89.152,33.064 89.712,31.888 C90.44,32.672 91.196,33.848 91.504,34.66 C95.368,33.484 97.412,31.776 98.56,29.592 L103.964,29.592 C103.824,30.46 103.684,30.936 103.46,31.16 C103.18,31.356 102.9,31.412 102.48,31.412 C101.92,31.412 100.744,31.384 99.54,31.272 C100.128,32.168 100.548,33.568 100.604,34.604 C102.116,34.632 103.516,34.632 104.356,34.52 C105.336,34.436 106.148,34.212 106.848,33.512 C107.548,32.756 107.912,31.104 108.136,27.884 C108.192,27.436 108.22,26.54 108.22,26.54 L99.568,26.54 L99.736,25.448 L99.736,25.448 L110.824,25.448 L110.824,22.312 L102.648,22.312 C102.48,21.808 102.312,21.276 102.088,20.828 L109.34,20.828 L109.34,13.716 L92.036,13.716 L92.036,13.212 C97.888,12.876 104.188,12.204 109.172,11.112 L106.12,8.116 C101.668,9.152 94.472,9.88 88.004,10.216 L87.976,10.216 L87.976,19.54 C87.976,23.488 87.724,28.64 84.616,32.056 C85.372,32.588 86.968,34.268 87.528,35.08 Z M105.336,17.776 L92.036,17.776 L92.036,16.768 L105.336,16.768 L105.336,17.776 Z M98.196,22.312 L91.952,22.312 C91.98,21.808 92.008,21.304 92.008,20.828 L100.492,20.828 L97.832,21.276 C97.972,21.584 98.084,21.948 98.196,22.312 Z M89.992,31.272 C90.804,29.452 91.308,27.436 91.616,25.448 L95.676,25.448 C95.256,28.08 94.192,30.012 89.992,31.272 Z" id="買不起房" fill="#FFFFFF" fill-rule="nonzero"></path>
        <path d="M127.178,33.162 C129.558,33.162 130.23,32.392 130.538,30.04 C129.978,29.928 129.124,29.592 128.648,29.284 C128.438,31.034 128.214,31.342 126.982,31.342 L123.104,31.342 C121.802583,31.342 121.594066,31.2262812 121.578949,30.2801733 L121.578,26.106 L123.314,25.546 L123.314,30.082 L125.358,30.082 L125.358,24.888 L127.57,24.188 C127.514,25.798 127.402,27.478 127.248,28.57 L128.914,29.032 C129.264,27.254 129.474,24.622 129.558,22.634 L129.628,22.326 L128.102,21.85 L127.556,22.214 L125.358,22.9 L125.358,20.058 L123.314,20.058 L123.314,23.544 L121.578,24.104 L121.578,21.024 L119.59,21.024 L119.59,24.734 L117.266,25.462 L117.812,27.324 L119.59,26.75 L119.59,30.138 C119.59,32.546 120.36,33.162 123.062,33.162 L127.178,33.162 Z" id="也" fill="#FFFFFF" fill-rule="nonzero"></path>
        <path d="M144.596,34.66 L144.596,24.496 C145.156,25.56 145.716,26.624 146.052,27.436 L148.376,24.216 C147.844,23.516 145.352,20.66 144.624,19.988 L144.596,20.016 L144.596,19.708 L147.872,19.708 L147.872,15.928 L144.596,15.928 L144.596,12.596 C145.856,12.316 147.116,11.952 148.236,11.56 L146.024,8.228 C143.588,9.208 140.144,10.076 136.924,10.552 C137.344,11.42 137.848,12.792 137.988,13.688 C138.884,13.604 139.808,13.464 140.732,13.324 L140.732,15.928 L136.756,15.928 L136.756,19.708 L140.2,19.708 C139.248,22.144 137.876,24.804 136.42,26.512 C137.036,27.548 137.904,29.256 138.268,30.432 C139.164,29.256 139.976,27.716 140.732,26.008 L140.732,34.66 L144.596,34.66 Z M163.216,33.848 L163.216,30.096 L160.92,30.096 L160.92,9.376 L149.048,9.376 L149.048,30.096 L146.556,30.096 L146.556,33.848 L163.216,33.848 Z M156.804,16.264 L152.968,16.264 L152.968,13.128 L156.804,13.128 L156.804,16.264 Z M156.804,23.152 L152.968,23.152 L152.968,19.904 L156.804,19.904 L156.804,23.152 Z M156.804,30.096 L152.968,30.096 L152.968,26.792 L156.804,26.792 L156.804,30.096 Z M180.268,34.604 L180.268,20.884 C183.068,23.236 186.456,26.204 188.024,28.192 L191.524,25.056 C189.508,22.788 185.168,19.512 182.34,17.3 L180.268,19.036 L180.268,16.376 C180.772,15.62 181.248,14.836 181.696,14.052 L190.32,14.052 L190.32,9.88 L165.736,9.88 L165.736,14.052 L176.292,14.052 C173.772,18.14 169.656,22.2 164.756,24.44 C165.624,25.364 166.912,27.072 167.556,28.164 C170.636,26.568 173.408,24.412 175.788,21.948 L175.788,34.604 L180.268,34.604 Z M195.64,35.108 C196.144,33.848 196.508,32.28 196.788,30.572 C199.028,33.372 202.332,33.96 207.176,33.96 L218.096,33.96 C218.348,32.728 219.02,30.852 219.636,29.928 C216.64,30.096 209.78,30.096 207.204,30.068 C205.16,30.068 203.452,29.984 202.024,29.592 L202.024,25.644 L205.3,25.644 L205.3,22.144 L202.024,22.144 L202.024,19.764 L205.552,19.764 L205.552,16.208 L201.296,16.208 L201.296,14.136 L204.852,14.136 L204.852,10.636 L201.296,10.636 L201.296,8.172 L197.488,8.172 L197.488,10.636 L193.876,10.636 L193.876,14.136 L197.488,14.136 L197.488,16.208 L193.064,16.208 L193.064,19.764 L198.3,19.764 L198.3,26.848 C197.936,26.288 197.628,25.616 197.348,24.832 C197.432,23.684 197.46,22.508 197.488,21.332 L193.792,21.052 C193.764,25.812 193.484,30.572 192.224,33.428 C193.12,33.792 194.912,34.632 195.64,35.108 Z M214.904,29.088 C217.928,29.088 218.964,27.688 219.412,23.516 C218.32,23.264 216.724,22.62 215.884,21.976 C215.716,24.832 215.52,25.448 214.54,25.448 L211.684,25.448 C210.664333,25.448 210.493271,25.2937083 210.480786,24.0733041 L210.48,19.988 L217.676,19.988 L217.676,9.012 L206.56,9.012 L206.56,23.908 C206.56,27.996 207.652,29.088 211.096,29.088 L214.904,29.088 Z M213.784,16.488 L210.48,16.488 L210.48,12.568 L213.784,12.568 L213.784,16.488 Z" id="租不起" fill="#FFFFFF" fill-rule="nonzero"></path>
        <path d="M232.84375,31.796875 C232.864583,31.0052083 232.973958,30.3515625 233.171875,29.8359375 C233.369792,29.3203125 233.723958,28.8177083 234.234375,28.328125 L234.234375,28.328125 L236.03125,26.65625 C236.791667,25.9166667 237.34375,25.1927083 237.6875,24.484375 C238.03125,23.7760417 238.203125,22.9895833 238.203125,22.125 C238.203125,20.1458333 237.565104,18.6197917 236.289062,17.546875 C235.013021,16.4739583 233.213542,15.9375 230.890625,15.9375 C228.557292,15.9375 226.744792,16.5182292 225.453125,17.6796875 C224.161458,18.8411458 223.505208,20.4635417 223.484375,22.546875 L223.484375,22.546875 L228.765625,22.546875 C228.786458,21.765625 228.989583,21.1458333 229.375,20.6875 C229.760417,20.2291667 230.265625,20 230.890625,20 C232.244792,20 232.921875,20.7864583 232.921875,22.359375 C232.921875,23.0052083 232.721354,23.5963542 232.320312,24.1328125 C231.919271,24.6692708 231.333333,25.2604167 230.5625,25.90625 C229.791667,26.5520833 229.234375,27.3151042 228.890625,28.1953125 C228.546875,29.0755208 228.375,30.2760417 228.375,31.796875 L228.375,31.796875 L232.84375,31.796875 Z M230.65625,39.1875 C231.489583,39.1875 232.184896,38.9401042 232.742188,38.4453125 C233.299479,37.9505208 233.578125,37.3177083 233.578125,36.546875 C233.578125,35.7760417 233.299479,35.1432292 232.742188,34.6484375 C232.184896,34.1536458 231.489583,33.90625 230.65625,33.90625 C229.822917,33.90625 229.127604,34.1536458 228.570312,34.6484375 C228.013021,35.1432292 227.734375,35.7760417 227.734375,36.546875 C227.734375,37.3177083 228.013021,37.9505208 228.570312,38.4453125 C229.127604,38.9401042 229.822917,39.1875 230.65625,39.1875 Z" id="?" fill="#FFFFFF" fill-rule="nonzero" transform="translate(230.843750, 27.562500) rotate(15.000000) translate(-230.843750, -27.562500) "></path>
    </g>
</svg>